<?xml version="1.0" encoding="utf-8"?>
<!-- Generator: Adobe Illustrator 15.1.0, SVG Export Plug-In . SVG Version: 6.00 Build 0)  -->
<!DOCTYPE svg PUBLIC "-//W3C//DTD SVG 1.1//EN" "http://www.w3.org/Graphics/SVG/1.1/DTD/svg11.dtd">
<svg version="1.1" id="Layer_1" xmlns="http://www.w3.org/2000/svg" xmlns:xlink="http://www.w3.org/1999/xlink" x="0px" y="0px"
	 width="40px" height="40px" viewBox="0 0 40 40" enable-background="new 0 0 40 40" xml:space="preserve">
<g id="calendar" display="none">
	<path display="inline" fill="#999999" d="M36.896,4.661H31.92V2.286c0-0.552-0.443-1-1-1c-0.553,0-1,0.448-1,1v2.375H10.076V2.286
		c0-0.552-0.448-1-1-1c-0.552,0-1,0.448-1,1v2.375H3.104c-1.654,0-3,1.346-3,3v28.053c0,1.654,1.346,3,3,3h33.791
		c1.654,0,3-1.346,3-3V7.661C39.896,6.007,38.55,4.661,36.896,4.661z M3.104,6.661h4.972v3.807c0,0.552,0.448,1,1,1
		c0.552,0,1-0.448,1-1V6.661h19.848v3.807c0,0.552,0.447,1,1,1s1-0.448,1-1V6.661h4.973c0.557,0,1,0.449,1,1v5.181H2.104V7.661
		C2.104,7.11,2.553,6.661,3.104,6.661z M36.896,36.714H3.104c-0.551,0-1-0.448-1-1V14.842h35.791v20.872
		C37.896,36.266,37.447,36.714,36.896,36.714z"/>
</g>
<g>
	<path fill="#45CAE6" d="M22.519,36h-5.996V20h-4v-5.514l4-0.002l-0.006-3.248C16.516,6.737,17.735,4,23.034,4h4.412v5.515h-2.757
		c-2.063,0-2.163,0.77-2.163,2.209l-0.008,2.76h4.959l-0.585,5.514L22.522,20L22.519,36z"/>
</g>
</svg>
