<?xml version="1.0" encoding="utf-8"?>
<!-- Generator: Adobe Illustrator 15.1.0, SVG Export Plug-In . SVG Version: 6.00 Build 0)  -->
<!DOCTYPE svg PUBLIC "-//W3C//DTD SVG 1.1//EN" "http://www.w3.org/Graphics/SVG/1.1/DTD/svg11.dtd">
<svg version="1.1" id="Layer_1" xmlns="http://www.w3.org/2000/svg" xmlns:xlink="http://www.w3.org/1999/xlink" x="0px" y="0px"
	 width="40px" height="40px" viewBox="0 0 40 40" enable-background="new 0 0 40 40" xml:space="preserve">
<g id="calendar" display="none">
	<path display="inline" fill="#999999" d="M36.896,4.661H31.92V2.286c0-0.552-0.443-1-1-1c-0.553,0-1,0.448-1,1v2.375H10.076V2.286
		c0-0.552-0.448-1-1-1c-0.552,0-1,0.448-1,1v2.375H3.104c-1.654,0-3,1.346-3,3v28.053c0,1.654,1.346,3,3,3h33.791
		c1.654,0,3-1.346,3-3V7.661C39.896,6.007,38.55,4.661,36.896,4.661z M3.104,6.661h4.972v3.807c0,0.552,0.448,1,1,1
		c0.552,0,1-0.448,1-1V6.661h19.848v3.807c0,0.552,0.447,1,1,1s1-0.448,1-1V6.661h4.973c0.557,0,1,0.449,1,1v5.181H2.104V7.661
		C2.104,7.11,2.553,6.661,3.104,6.661z M36.896,36.714H3.104c-0.551,0-1-0.448-1-1V14.842h35.791v20.872
		C37.896,36.266,37.447,36.714,36.896,36.714z"/>
</g>
<g>
	<path fill="#45CAE6" d="M36,10.075c-1.176,0.522-2.443,0.875-3.771,1.034c1.355-0.813,2.396-2.099,2.889-3.632
		c-1.27,0.752-2.676,1.299-4.17,1.593c-1.197-1.276-2.904-2.073-4.793-2.073c-3.625,0-6.564,2.939-6.564,6.565
		c0,0.515,0.059,1.016,0.17,1.496c-5.455-0.274-10.294-2.888-13.531-6.86c-0.565,0.97-0.89,2.097-0.89,3.301
		c0,2.278,1.159,4.287,2.921,5.465c-1.076-0.034-2.088-0.329-2.974-0.821c-0.001,0.027-0.001,0.055-0.001,0.083
		c0,3.181,2.263,5.833,5.266,6.438C10,22.813,9.42,22.894,8.821,22.894c-0.422,0-0.834-0.041-1.234-0.117
		c0.836,2.607,3.26,4.506,6.133,4.559c-2.246,1.762-5.078,2.811-8.154,2.811c-0.529,0-1.051-0.031-1.565-0.092
		c2.905,1.862,6.356,2.949,10.063,2.949c12.076,0,18.679-10.004,18.679-18.68c0-0.285-0.006-0.568-0.02-0.849
		C34.008,12.547,35.121,11.391,36,10.075z"/>
</g>
</svg>
